<svg version="1.2" xmlns="http://www.w3.org/2000/svg" viewBox="0 0 480 480" width="480" height="480"><style></style><path  d="m24 48h24v24h-24z"/><path  d="m0 72h24v336h-24z"/><path  d="m48 24h24v24h-24z"/><path  d="m72 0h336v24h-336z"/><path  d="m24 408h24v24h-24z"/><path  d="m48 432h24v24h-24z"/><path  d="m432 48h24v24h-24z"/><path  d="m456 72h24v336h-24z"/><path  d="m408 24h24v24h-24z"/><path  d="m432 408h24v24h-24z"/><path  d="m408 432h24v24h-24z"/><path  d="m72 456h336v24h-336z"/><path  d="m120 144h24v24h-24z"/><path  d="m168 144h24v24h-24z"/><path  d="m144 120h24v24h-24z"/><path  d="m144 168h24v24h-24z"/><path  d="m120 312h24v24h-24z"/><path  d="m168 312h24v24h-24z"/><path  d="m144 288h24v24h-24z"/><path  d="m144 336h24v24h-24z"/><path  d="m288 144h24v24h-24z"/><path  d="m336 144h24v24h-24z"/><path  d="m312 120h24v24h-24z"/><path  d="m312 168h24v24h-24z"/><path  d="m288 312h24v24h-24z"/><path  d="m336 312h24v24h-24z"/><path  d="m312 288h24v24h-24z"/><path  d="m312 336h24v24h-24z"/></svg>