<svg version="1.2" xmlns="http://www.w3.org/2000/svg" viewBox="0 0 38 38" width="38" height="38"><style>.a{fill:#fff}</style><path fill-rule="evenodd" class="a" d="m19 0c10.5 0 19 8.5 19 19 0 10.5-8.5 19-19 19-10.5 0-19-8.5-19-19 0-10.5 8.5-19 19-19zm0 4c-7.8 0-14.2 5.9-15 13.4h7.2c0.8-3.6 4-6.3 7.8-6.3 3.8 0 7 2.7 7.8 6.3h7.2c-0.8-7.5-7.2-13.4-15-13.4zm-15 16.6c0.8 7.5 7.2 13.4 15 13.4 7.8 0 14.2-5.9 15-13.4h-7.2c-0.8 3.6-4 6.3-7.8 6.3-3.8 0-7-2.7-7.8-6.3zm15-6.3c-2.6 0-4.7 2.1-4.7 4.7 0 2.6 2.1 4.8 4.7 4.8 2.6 0 4.8-2.2 4.8-4.8 0-2.6-2.2-4.7-4.8-4.7zm0 2.3c1.3 0 2.4 1.1 2.4 2.4 0 1.3-1.1 2.4-2.4 2.4-1.3 0-2.4-1.1-2.4-2.4 0-1.3 1.1-2.4 2.4-2.4z"/></svg>